<?xml version="1.0" encoding="utf-8"?>
<!-- Generator: Adobe Illustrator 17.0.0, SVG Export Plug-In . SVG Version: 6.00 Build 0)  -->
<!DOCTYPE svg PUBLIC "-//W3C//DTD SVG 1.1//EN" "http://www.w3.org/Graphics/SVG/1.1/DTD/svg11.dtd">
<svg version="1.1" id="Layer_1" xmlns="http://www.w3.org/2000/svg" xmlns:xlink="http://www.w3.org/1999/xlink" x="0px" y="0px"
	 width="130px" height="39px" viewBox="0 0 130 39" enable-background="new 0 0 130 39" xml:space="preserve">
<g>
	<rect x="52.274" y="34.429" fill="#FFFFFF" width="21.852" height="0.449"/>
	<path fill="#FFFFFF" d="M52.776,30.296h0.742l0.137,0.393h0.42l-0.687-1.964h-0.475l-0.698,1.964h0.42L52.776,30.296z
		 M53.153,29.194l0.267,0.765h-0.514L53.153,29.194z"/>
	<path fill="#FFFFFF" d="M56.019,30.448l0.049,0.247h0.247v-1.06h-0.802l0,0.334h0.456c-0.003,0.051-0.003,0.143-0.113,0.269
		c-0.118,0.145-0.316,0.194-0.456,0.18c-0.231-0.024-0.379-0.191-0.459-0.352c-0.11-0.223-0.096-0.724,0.157-0.931
		c0.115-0.075,0.214-0.11,0.352-0.11c0.214,0,0.418,0.089,0.489,0.323h0.377c-0.008-0.043,0-0.218-0.228-0.441
		c-0.203-0.196-0.467-0.215-0.657-0.215c-0.173,0-0.299,0.035-0.382,0.07c-0.674,0.288-0.737,1.291-0.272,1.736
		c0.093,0.087,0.22,0.232,0.583,0.251C55.755,30.769,55.923,30.567,56.019,30.448z"/>
	<path fill="#FFFFFF" d="M58.097,30.506c0.006,0.065,0.022,0.124,0.055,0.183h0.441v-0.073c-0.044-0.027-0.077-0.051-0.077-0.162
		c-0.003-0.1-0.008-0.358-0.019-0.439c-0.022-0.178-0.153-0.226-0.222-0.272c0.134-0.078,0.222-0.14,0.272-0.31
		c0.049-0.17,0.008-0.31-0.019-0.396c-0.058-0.213-0.261-0.305-0.461-0.313h-1.111v1.965h0.412v-0.776h0.483
		c0.143,0,0.242,0.065,0.247,0.197C58.092,30.252,58.092,30.409,58.097,30.506z M57.929,29.576h-0.562v-0.515h0.557
		c0.184,0,0.25,0.081,0.25,0.221C58.198,29.476,58.025,29.576,57.929,29.576z"/>
	<rect x="59.123" y="28.724" fill="#FFFFFF" width="0.412" height="1.964"/>
	<path fill="#FFFFFF" d="M60.971,30.748c0.247-0.008,0.473-0.099,0.591-0.191c0.151-0.116,0.267-0.342,0.269-0.541h-0.393
		c-0.017,0.086-0.025,0.285-0.311,0.363c-0.058,0.016-0.118,0.024-0.173,0.022c-0.058,0-0.11-0.011-0.162-0.032
		c-0.102-0.046-0.192-0.132-0.258-0.275c-0.055-0.121-0.069-0.272-0.063-0.412c0.008-0.14,0.036-0.269,0.063-0.339
		c0.066-0.167,0.212-0.299,0.399-0.312c0.401-0.03,0.495,0.248,0.506,0.358h0.393c-0.003-0.1-0.017-0.353-0.305-0.544
		c-0.195-0.137-0.396-0.153-0.539-0.153c-0.52,0-0.759,0.288-0.872,0.654c-0.033,0.11-0.047,0.245-0.047,0.377
		c0,0.129,0.017,0.253,0.039,0.345C60.214,30.482,60.525,30.762,60.971,30.748z"/>
	<path fill="#FFFFFF" d="M63.586,30.667c0.333-0.159,0.377-0.417,0.377-0.589v-1.354H63.55v1.359c0,0.124-0.058,0.315-0.384,0.315
		c-0.335,0-0.373-0.191-0.379-0.315v-1.359h-0.412v1.354c0,0.194,0.082,0.425,0.415,0.605c0.11,0.04,0.247,0.065,0.387,0.065
		C63.317,30.748,63.462,30.721,63.586,30.667z"/>
	<polygon fill="#FFFFFF" points="65.977,30.352 65.018,30.352 65.018,28.724 64.606,28.724 64.606,30.689 65.977,30.689 	"/>
	<polygon fill="#FFFFFF" points="67.154,30.688 67.154,29.061 67.739,29.061 67.739,28.724 66.134,28.724 66.134,29.061 
		66.741,29.061 66.741,30.688 	"/>
	<path fill="#FFFFFF" d="M69.803,30.078v-1.354H69.39v1.359c0,0.124-0.058,0.315-0.384,0.315c-0.335,0-0.373-0.191-0.379-0.315
		v-1.359h-0.412v1.354c0,0.194,0.082,0.425,0.415,0.605c0.11,0.04,0.247,0.065,0.387,0.065c0.14,0,0.285-0.027,0.409-0.081
		C69.759,30.509,69.803,30.25,69.803,30.078z"/>
	<path fill="#FFFFFF" d="M72.084,30.616c-0.044-0.027-0.077-0.051-0.077-0.162c-0.003-0.1-0.008-0.358-0.019-0.439
		c-0.022-0.178-0.153-0.226-0.222-0.272c0.134-0.078,0.222-0.14,0.272-0.31c0.049-0.17,0.008-0.31-0.019-0.396
		c-0.058-0.213-0.261-0.305-0.461-0.313h-1.112v1.965h0.412v-0.776h0.483c0.143,0,0.241,0.065,0.247,0.197
		c-0.005,0.143-0.005,0.299,0,0.396c0.005,0.065,0.022,0.124,0.055,0.183h0.442V30.616z M71.42,29.576h-0.562v-0.515h0.557
		c0.184,0,0.25,0.081,0.25,0.221C71.689,29.476,71.516,29.576,71.42,29.576z"/>
	<polygon fill="#FFFFFF" points="74.112,29.061 74.112,28.724 72.66,28.724 72.66,30.689 74.158,30.689 74.158,30.352 
		73.073,30.352 73.073,29.847 74.032,29.847 74.032,29.51 73.073,29.51 73.073,29.061 	"/>
	<path fill="#FFFFFF" d="M54.03,32.496c0-0.081-0.038-0.515-0.723-0.515h-0.828v1.965h0.905c0.127,0,0.35-0.019,0.487-0.135
		c0.179-0.151,0.209-0.312,0.209-0.414c0-0.234-0.121-0.406-0.239-0.495C53.986,32.783,54.03,32.615,54.03,32.496z M52.891,32.318
		h0.49c0.143,0,0.256,0.054,0.256,0.225c0,0.157-0.102,0.225-0.278,0.225h-0.468V32.318z M53.376,33.609h-0.485v-0.505h0.562
		c0.077,0,0.234,0.011,0.234,0.231C53.687,33.604,53.5,33.609,53.376,33.609z"/>
	<rect x="54.913" y="31.981" fill="#FFFFFF" width="0.412" height="1.964"/>
	<path fill="#FFFFFF" d="M57.083,34.005c0.256,0,0.501-0.075,0.669-0.245c0.187-0.191,0.297-0.487,0.297-0.783
		c0-0.296-0.11-0.592-0.297-0.783c-0.168-0.17-0.413-0.245-0.669-0.245c-0.256,0-0.501,0.075-0.669,0.245
		c-0.187,0.191-0.297,0.487-0.297,0.783c0,0.296,0.11,0.592,0.297,0.783C56.582,33.93,56.827,34.005,57.083,34.005z M56.714,32.433
		c0.105-0.094,0.237-0.132,0.369-0.132s0.264,0.038,0.369,0.132c0.132,0.118,0.198,0.331,0.201,0.544
		c-0.003,0.213-0.069,0.425-0.201,0.544c-0.105,0.094-0.237,0.132-0.369,0.132s-0.264-0.038-0.369-0.132
		c-0.132-0.118-0.198-0.331-0.201-0.544C56.516,32.764,56.582,32.551,56.714,32.433z"/>
	<polygon fill="#FFFFFF" points="58.87,33.946 60.242,33.946 60.242,33.609 59.283,33.609 59.283,31.981 58.87,31.981 	"/>
	<path fill="#FFFFFF" d="M61.906,34.005c0.256,0,0.501-0.075,0.669-0.245c0.187-0.191,0.297-0.487,0.297-0.783
		c0-0.296-0.11-0.592-0.297-0.783c-0.168-0.17-0.413-0.245-0.669-0.245c-0.256,0-0.501,0.075-0.669,0.245
		c-0.187,0.191-0.297,0.487-0.297,0.783c0,0.296,0.11,0.592,0.297,0.783C61.405,33.93,61.65,34.005,61.906,34.005z M61.537,32.433
		c0.105-0.094,0.237-0.132,0.369-0.132c0.132,0,0.264,0.038,0.369,0.132c0.132,0.118,0.198,0.331,0.201,0.544
		c-0.003,0.213-0.069,0.425-0.201,0.544c-0.105,0.094-0.237,0.132-0.369,0.132c-0.132,0-0.264-0.038-0.369-0.132
		c-0.132-0.118-0.198-0.331-0.201-0.544C61.339,32.764,61.405,32.551,61.537,32.433z"/>
	<path fill="#FFFFFF" d="M64.209,32.392c0.115-0.075,0.214-0.11,0.352-0.11c0.214,0,0.418,0.089,0.489,0.323h0.377
		c-0.008-0.043,0-0.218-0.228-0.441c-0.203-0.196-0.467-0.215-0.657-0.215c-0.173,0-0.299,0.035-0.382,0.07
		c-0.674,0.288-0.737,1.291-0.272,1.736c0.094,0.086,0.22,0.232,0.583,0.251c0.396,0.022,0.563-0.181,0.659-0.3l0.049,0.247h0.247
		v-1.06h-0.802l0,0.333h0.456c-0.003,0.051-0.003,0.143-0.113,0.269c-0.118,0.145-0.316,0.194-0.456,0.18
		c-0.231-0.024-0.379-0.191-0.459-0.352C63.943,33.099,63.957,32.599,64.209,32.392z"/>
	<rect x="66.285" y="31.981" fill="#FFFFFF" width="0.412" height="1.964"/>
	<path fill="#FFFFFF" d="M69.13,32.193c-0.168-0.17-0.412-0.245-0.667-0.245c-0.255,0-0.5,0.075-0.667,0.245
		c-0.187,0.191-0.297,0.487-0.297,0.783c0,0.296,0.11,0.592,0.297,0.783c0.167,0.17,0.412,0.245,0.667,0.245
		c0.187,0,0.368-0.04,0.521-0.132l0.231,0.216l0.212-0.218l-0.217-0.202c0.137-0.186,0.217-0.439,0.217-0.692
		C69.427,32.681,69.317,32.385,69.13,32.193z M68.924,33.402l-0.225-0.21l-0.211,0.221l0.206,0.191
		c-0.071,0.035-0.151,0.048-0.231,0.048c-0.132,0-0.263-0.038-0.368-0.132c-0.132-0.118-0.198-0.331-0.2-0.544
		c0.003-0.213,0.069-0.425,0.2-0.544c0.104-0.094,0.236-0.132,0.368-0.132c0.132,0,0.264,0.038,0.368,0.132
		c0.132,0.118,0.198,0.331,0.2,0.544C69.029,33.13,68.996,33.283,68.924,33.402z"/>
	<path fill="#FFFFFF" d="M70.229,31.981v1.354c0,0.194,0.083,0.425,0.415,0.605c0.11,0.04,0.247,0.065,0.387,0.065
		c0.14,0,0.285-0.027,0.409-0.081c0.332-0.159,0.377-0.417,0.377-0.589v-1.354h-0.412v1.359c0,0.124-0.058,0.315-0.384,0.315
		c-0.335,0-0.373-0.191-0.379-0.315v-1.359H70.229z"/>
	<polygon fill="#FFFFFF" points="73.139,33.609 73.139,33.104 74.098,33.104 74.098,32.767 73.139,32.767 73.139,32.318 
		74.178,32.318 74.178,31.981 72.726,31.981 72.726,33.946 74.224,33.946 74.224,33.609 	"/>
	<rect x="52.294" y="4.001" fill="#FFFFFF" width="21.753" height="0.555"/>
	<path fill="#FFFFFF" d="M53.027,6.419c0.054-0.171,0.174-0.305,0.327-0.319c0.329-0.03,0.406,0.253,0.415,0.366h0.323
		c-0.002-0.102-0.014-0.36-0.251-0.555c-0.16-0.14-0.325-0.157-0.442-0.157c-0.426,0-0.622,0.294-0.715,0.668
		c-0.027,0.113-0.038,0.25-0.038,0.385c0,0.132,0.014,0.259,0.032,0.352c0.088,0.423,0.343,0.708,0.708,0.694
		c0.203-0.008,0.388-0.101,0.485-0.194c0.124-0.118,0.219-0.349,0.221-0.552h-0.323c-0.014,0.088-0.02,0.292-0.255,0.371
		c-0.047,0.017-0.097,0.025-0.142,0.022c-0.047,0-0.09-0.011-0.133-0.033c-0.083-0.047-0.158-0.135-0.212-0.281
		c-0.045-0.124-0.056-0.278-0.052-0.421C52.982,6.623,53.005,6.491,53.027,6.419z"/>
	<polygon fill="#FFFFFF" points="57.128,6.13 57.128,5.787 55.94,5.787 55.94,7.791 57.166,7.791 57.166,7.448 56.276,7.448 
		56.276,6.933 57.063,6.933 57.063,6.589 56.276,6.589 56.276,6.13 	"/>
	<path fill="#FFFFFF" d="M59.971,7.605c0.005,0.066,0.018,0.127,0.045,0.186h0.362V7.719c-0.036-0.028-0.063-0.052-0.063-0.165
		c-0.002-0.102-0.007-0.367-0.016-0.45c-0.018-0.182-0.126-0.231-0.182-0.278c0.11-0.08,0.182-0.143,0.222-0.316
		c0.04-0.173,0.007-0.316-0.016-0.404c-0.047-0.217-0.213-0.31-0.378-0.319h-0.912v2.004h0.337V6.999h0.398
		c0.117,0,0.199,0.066,0.203,0.201C59.967,7.346,59.967,7.506,59.971,7.605z M59.833,6.655H59.37V6.13h0.458
		c0.151,0,0.205,0.082,0.205,0.225C60.054,6.554,59.912,6.655,59.833,6.655z"/>
	<polygon fill="#FFFFFF" points="62.932,7.791 62.932,6.13 63.411,6.13 63.411,5.787 62.097,5.787 62.097,6.13 62.595,6.13 
		62.595,7.791 	"/>
	<rect x="65.173" y="5.787" fill="#FFFFFF" width="0.337" height="2.004"/>
	<polygon fill="#FFFFFF" points="68.566,6.13 68.566,5.787 67.414,5.787 67.414,7.791 67.751,7.791 67.751,6.933 68.469,6.933 
		68.469,6.589 67.751,6.589 67.751,6.13 	"/>
	<rect x="70.352" y="5.787" fill="#FFFFFF" width="0.337" height="2.004"/>
	<polygon fill="#FFFFFF" points="73.279,5.22 73.119,5.632 73.274,5.632 73.561,5.22 	"/>
	<polygon fill="#FFFFFF" points="72.603,7.791 73.829,7.791 73.829,7.448 72.94,7.448 72.94,6.933 73.726,6.933 73.726,6.589 
		72.94,6.589 72.94,6.13 73.791,6.13 73.791,5.787 72.603,5.787 	"/>
	<path fill="#FFFFFF" d="M56.248,22.281h4.835c0,0,0.003-6.185,0.003-6.227C60.156,16.419,57.597,18.836,56.248,22.281z"/>
	<path fill="#FFFFFF" d="M66.099,21.085h-0.907v4.228h1.127c1.362,0,2.787-0.421,2.787-2.154
		C69.107,21.442,67.416,21.085,66.099,21.085z"/>
	<path fill="#FFFFFF" d="M68.101,17.835c0-1.714-1.126-2.005-2.502-2.005h-0.406v4.043h0.375
		C66.959,19.873,68.101,19.582,68.101,17.835z"/>
	<path fill="#FFFFFF" d="M74.099,8.253H52.267v19.521h21.832V8.253z M62.617,16.197c-0.001,0.033-0.001,10.474-0.001,10.474h-1.532
		v-2.911h-5.316c-0.237,0.913-0.376,1.879-0.376,2.884h-1.532c0-3.77,1.793-6.892,2.861-8.418c1.297-1.852,3.203-3.731,4.536-3.753
		c0.483-0.008,0.788,0.194,0.957,0.365C62.637,15.265,62.624,15.871,62.617,16.197z M66.476,26.66h-2.758V14.483h1.443
		c2.22,0,4.313,0.593,4.313,3.336c0,0.889-0.468,1.924-1.26,2.312v0.032c1.394,0.259,2.367,1.667,2.367,3.092
		C70.581,25.698,68.559,26.66,66.476,26.66z M68.889,14.461c-3.355,0-4.103-3.703-3.029-5.323c1.4,0.555,2.668,2.536,2.25,4.675
		c0.172-0.484,2.118-2.157,4.094-1.704C72.151,12.718,70.857,14.461,68.889,14.461z"/>
</g>
<g>
</g>
<g>
</g>
<g>
</g>
<g>
</g>
<g>
</g>
<g>
</g>
</svg>
