<?xml version="1.0" encoding="utf-8"?>
<!-- Generator: Adobe Illustrator 17.0.0, SVG Export Plug-In . SVG Version: 6.00 Build 0)  -->
<!DOCTYPE svg PUBLIC "-//W3C//DTD SVG 1.1//EN" "http://www.w3.org/Graphics/SVG/1.1/DTD/svg11.dtd">
<svg version="1.1" id="Layer_1" xmlns="http://www.w3.org/2000/svg" xmlns:xlink="http://www.w3.org/1999/xlink" x="0px" y="0px"
	 width="130px" height="39px" viewBox="0 0 130 39" enable-background="new 0 0 130 39" xml:space="preserve">
<g>
	<path fill="#FFFFFF" d="M65.469,22.19c-2.016,0-3.65,1.634-3.65,3.65c0,2.016,1.634,3.65,3.65,3.65c2.016,0,3.65-1.634,3.65-3.65
		C69.119,23.824,67.485,22.19,65.469,22.19z M65.469,28.532c-1.487,0-2.693-1.205-2.693-2.693c0-1.487,1.206-2.693,2.693-2.693
		c1.487,0,2.692,1.206,2.692,2.693C68.162,27.327,66.956,28.532,65.469,28.532z M68.965,23.643v-0.937
		c0-0.235-0.192-0.427-0.427-0.427h-0.978C68.13,22.615,68.612,23.084,68.965,23.643z M63.38,22.279h-1.311l0.358-2.704h3.74v2.194
		c0.436,0.074,0.849,0.217,1.227,0.417v-2.976c0-0.235-0.192-0.427-0.427-0.427h-5.328c-0.235,0-0.398,0.184-0.427,0.427
		l-0.424,3.068h-2.151V20.75c0-0.059-0.048-0.107-0.107-0.107h-0.28v-1.42l-0.317-0.702l-0.438,0.198l0.274,0.608v1.317h-0.28
		c-0.059,0-0.107,0.048-0.107,0.107v1.529h-1.102c-0.235,0-0.427,0.192-0.427,0.427v2.845c0.499-0.622,1.264-1.021,2.122-1.021
		c1.415,0,2.58,1.086,2.708,2.468h0.825c-0.108-0.368-0.167-0.757-0.167-1.159C61.339,24.324,62.16,22.998,63.38,22.279z
		 M65.469,24.558c-0.708,0-1.282,0.574-1.282,1.282c0,0.708,0.574,1.282,1.282,1.282c0.708,0,1.282-0.574,1.282-1.282
		C66.751,25.132,66.177,24.558,65.469,24.558z M57.973,25.011c-1.237,0-2.239,1.003-2.239,2.239c0,1.236,1.002,2.239,2.239,2.239
		c1.236,0,2.239-1.003,2.239-2.239C60.212,26.014,59.21,25.011,57.973,25.011z M57.973,28.532c-0.708,0-1.282-0.574-1.282-1.282
		c0-0.708,0.574-1.282,1.282-1.282c0.708,0,1.282,0.574,1.282,1.282C59.255,27.959,58.681,28.532,57.973,28.532z"/>
	<path fill="#FFFFFF" d="M73.15,24.904c0.023-0.297,0.036-0.596,0.036-0.898c0-0.303-0.012-0.602-0.036-0.899l-1.734-1.181
		c-0.064-0.29-0.14-0.576-0.229-0.856l0.912-1.892c-0.259-0.543-0.56-1.063-0.899-1.554l-2.096-0.156
		c-0.198-0.217-0.406-0.425-0.623-0.623l-0.156-2.095c-0.491-0.339-1.01-0.64-1.554-0.899l-1.892,0.912
		c-0.28-0.089-0.566-0.165-0.856-0.229l-1.181-1.734c-0.296-0.024-0.596-0.036-0.899-0.036c-0.303,0-0.602,0.012-0.898,0.036
		l-1.181,1.734c-0.291,0.064-0.576,0.14-0.856,0.229l-1.892-0.912c-0.543,0.259-1.063,0.56-1.554,0.899l-0.156,2.096
		c-0.217,0.198-0.425,0.406-0.623,0.623l-2.096,0.156c-0.339,0.491-0.64,1.01-0.899,1.554l0.912,1.892
		c-0.089,0.28-0.165,0.566-0.229,0.856l-1.734,1.181c-0.024,0.297-0.036,0.596-0.036,0.899c0,0.302,0.012,0.602,0.036,0.898
		l1.734,1.181c0.064,0.291,0.14,0.576,0.229,0.856l-0.912,1.891c0.259,0.543,0.56,1.063,0.899,1.554l2.096,0.156
		c0.198,0.217,0.406,0.425,0.623,0.623l0.156,2.096c0.491,0.339,1.01,0.64,1.554,0.899l1.892-0.912
		c0.28,0.089,0.566,0.165,0.856,0.229l1.181,1.734c0.297,0.023,0.596,0.036,0.899,0.036c0.303,0,0.602-0.012,0.899-0.036
		l1.181-1.734c0.291-0.064,0.576-0.14,0.856-0.229l1.892,0.912c0.543-0.259,1.063-0.56,1.554-0.899l0.156-2.096
		c0.217-0.198,0.425-0.406,0.623-0.623l2.096-0.156c0.339-0.491,0.64-1.01,0.899-1.554l-0.912-1.891
		c0.089-0.28,0.165-0.566,0.229-0.856L73.15,24.904z M61.944,32.615c-4.755,0-8.61-3.855-8.61-8.61c0-4.755,3.855-8.61,8.61-8.61
		c4.755,0,8.61,3.855,8.61,8.61C70.553,28.76,66.699,32.615,61.944,32.615z"/>
	<path fill="#FFFFFF" d="M63.859,5.498c0,0-0.848,0.01-1.377,0.539c-0.529,0.529-0.539,1.377-0.539,1.377s0.848-0.01,1.377-0.539
		C63.849,6.346,63.859,5.498,63.859,5.498z M61.944,7.414c0,0-0.01-0.848-0.539-1.377c-0.529-0.529-1.377-0.539-1.377-0.539
		s0.01,0.848,0.539,1.377C61.096,7.404,61.944,7.414,61.944,7.414z M62.536,4.986c0-0.748-0.593-1.355-0.593-1.355
		s-0.592,0.606-0.592,1.355c0,0.748,0.592,1.355,0.592,1.355S62.536,5.734,62.536,4.986z M60.028,10.375c0,0,0.01,0.848,0.539,1.377
		c0.529,0.529,1.377,0.539,1.377,0.539s-0.01-0.848-0.539-1.377C60.876,10.384,60.028,10.375,60.028,10.375z M60.028,7.124
		c0,0,0.01,0.848,0.539,1.377c0.529,0.529,1.377,0.539,1.377,0.539s-0.01-0.848-0.539-1.377C60.876,7.134,60.028,7.124,60.028,7.124
		z M61.944,9.04c0,0,0.848-0.01,1.377-0.539c0.529-0.529,0.539-1.377,0.539-1.377s-0.848,0.01-1.377,0.539
		C61.953,8.192,61.944,9.04,61.944,9.04z M61.944,10.665c0,0,0.848-0.01,1.377-0.539c0.529-0.529,0.539-1.377,0.539-1.377
		s-0.848,0.01-1.377,0.539C61.953,9.817,61.944,10.665,61.944,10.665z M60.028,8.749c0,0,0.01,0.848,0.539,1.377
		c0.529,0.529,1.377,0.539,1.377,0.539s-0.01-0.848-0.539-1.377C60.876,8.759,60.028,8.749,60.028,8.749z M61.944,12.291
		c0,0,0.848-0.01,1.377-0.539c0.529-0.529,0.539-1.377,0.539-1.377s-0.848,0.01-1.377,0.539
		C61.953,11.443,61.944,12.291,61.944,12.291z"/>
	<path fill="#FFFFFF" d="M68.714,6.607c0,0-0.848,0.01-1.377,0.539c-0.529,0.529-0.539,1.377-0.539,1.377s0.848-0.01,1.377-0.539
		C68.704,7.455,68.714,6.607,68.714,6.607z M66.798,8.523c0,0-0.01-0.848-0.539-1.377s-1.377-0.539-1.377-0.539
		s0.01,0.848,0.539,1.377C65.95,8.513,66.798,8.523,66.798,8.523z M67.39,6.094c0-0.748-0.593-1.355-0.593-1.355
		s-0.592,0.606-0.592,1.355c-0.001,0.748,0.592,1.355,0.592,1.355S67.39,6.843,67.39,6.094z M64.882,11.483
		c0,0,0.01,0.848,0.539,1.377c0.529,0.529,1.377,0.539,1.377,0.539s-0.01-0.848-0.539-1.377
		C65.73,11.493,64.882,11.483,64.882,11.483z M64.882,8.233c0,0,0.01,0.848,0.539,1.377c0.529,0.529,1.377,0.539,1.377,0.539
		s-0.01-0.848-0.539-1.377C65.73,8.242,64.882,8.233,64.882,8.233z M66.798,10.148c0,0,0.848-0.01,1.377-0.539
		c0.529-0.529,0.539-1.377,0.539-1.377s-0.848,0.01-1.377,0.539C66.808,9.3,66.798,10.148,66.798,10.148z M66.798,11.774
		c0,0,0.848-0.01,1.377-0.539c0.529-0.529,0.539-1.377,0.539-1.377s-0.848,0.01-1.377,0.539
		C66.808,10.926,66.798,11.774,66.798,11.774z M64.882,9.858c0,0,0.01,0.848,0.539,1.377c0.529,0.529,1.377,0.539,1.377,0.539
		s-0.01-0.848-0.539-1.377C65.73,9.868,64.882,9.858,64.882,9.858z M66.798,13.399c0,0,0.848-0.01,1.377-0.539
		c0.529-0.529,0.539-1.377,0.539-1.377s-0.848,0.01-1.377,0.539C66.808,12.551,66.798,13.399,66.798,13.399z"/>
	<path fill="#FFFFFF" d="M73.186,10.301c0,0-0.848,0.01-1.377,0.539c-0.529,0.529-0.539,1.377-0.539,1.377s0.848-0.01,1.377-0.539
		C73.176,11.149,73.186,10.301,73.186,10.301z M71.27,12.217c0,0-0.01-0.848-0.539-1.377c-0.529-0.529-1.377-0.539-1.377-0.539
		s0.01,0.848,0.539,1.377C70.422,12.207,71.27,12.217,71.27,12.217z M71.863,9.788c0-0.748-0.593-1.355-0.593-1.355
		s-0.592,0.606-0.592,1.355c0,0.748,0.592,1.355,0.592,1.355S71.863,10.536,71.863,9.788z M69.354,15.177
		c0,0,0.01,0.848,0.539,1.377c0.529,0.529,1.377,0.539,1.377,0.539s-0.01-0.848-0.539-1.377
		C70.202,15.187,69.354,15.177,69.354,15.177z M69.354,11.926c0,0,0.01,0.848,0.539,1.377c0.529,0.529,1.377,0.539,1.377,0.539
		s-0.01-0.848-0.539-1.377C70.202,11.936,69.354,11.926,69.354,11.926z M71.27,13.842c0,0,0.848-0.01,1.377-0.539
		c0.529-0.529,0.539-1.377,0.539-1.377s-0.848,0.01-1.377,0.539C71.28,12.994,71.27,13.842,71.27,13.842z M71.27,15.468
		c0,0,0.848-0.01,1.377-0.539c0.529-0.529,0.539-1.377,0.539-1.377s-0.848,0.01-1.377,0.539C71.28,14.62,71.27,15.468,71.27,15.468z
		 M69.354,13.551c0,0,0.01,0.848,0.539,1.377c0.529,0.529,1.377,0.539,1.377,0.539s-0.01-0.848-0.539-1.377
		C70.202,13.561,69.354,13.551,69.354,13.551z M71.27,17.093c0,0,0.848-0.01,1.377-0.539c0.529-0.529,0.539-1.377,0.539-1.377
		s-0.848,0.01-1.377,0.539C71.28,16.245,71.27,17.093,71.27,17.093z"/>
	<path fill="#FFFFFF" d="M54.557,10.301c0,0-0.848,0.01-1.377,0.539c-0.529,0.529-0.539,1.377-0.539,1.377s0.848-0.01,1.377-0.539
		C54.547,11.149,54.557,10.301,54.557,10.301z M52.641,12.217c0,0-0.01-0.848-0.539-1.377c-0.529-0.529-1.377-0.539-1.377-0.539
		s0.01,0.848,0.539,1.377C51.794,12.207,52.641,12.217,52.641,12.217z M53.234,9.788c0-0.748-0.593-1.355-0.593-1.355
		s-0.592,0.606-0.592,1.355c0,0.748,0.592,1.355,0.592,1.355S53.234,10.536,53.234,9.788z M50.726,15.177
		c0,0,0.01,0.848,0.539,1.377c0.529,0.529,1.377,0.539,1.377,0.539s-0.01-0.848-0.539-1.377
		C51.573,15.187,50.726,15.177,50.726,15.177z M50.726,11.926c0,0,0.01,0.848,0.539,1.377c0.529,0.529,1.377,0.539,1.377,0.539
		s-0.01-0.848-0.539-1.377C51.573,11.936,50.726,11.926,50.726,11.926z M52.641,13.842c0,0,0.848-0.01,1.377-0.539
		c0.529-0.529,0.539-1.377,0.539-1.377s-0.848,0.01-1.377,0.539C52.651,12.994,52.641,13.842,52.641,13.842z M52.641,15.468
		c0,0,0.848-0.01,1.377-0.539c0.529-0.529,0.539-1.377,0.539-1.377s-0.848,0.01-1.377,0.539
		C52.651,14.62,52.641,15.468,52.641,15.468z M50.726,13.551c0,0,0.01,0.848,0.539,1.377c0.529,0.529,1.377,0.539,1.377,0.539
		s-0.01-0.848-0.539-1.377C51.573,13.561,50.726,13.551,50.726,13.551z M52.641,17.093c0,0,0.848-0.01,1.377-0.539
		c0.529-0.529,0.539-1.377,0.539-1.377s-0.848,0.01-1.377,0.539C52.651,16.245,52.641,17.093,52.641,17.093z"/>
	<path fill="#FFFFFF" d="M59.095,6.607c0,0-0.848,0.01-1.377,0.539c-0.529,0.529-0.539,1.377-0.539,1.377s0.848-0.01,1.377-0.539
		C59.085,7.455,59.095,6.607,59.095,6.607z M57.179,8.523c0,0-0.01-0.848-0.539-1.377c-0.529-0.529-1.377-0.539-1.377-0.539
		s0.01,0.848,0.539,1.377C56.332,8.513,57.179,8.523,57.179,8.523z M57.772,6.094c0-0.748-0.593-1.355-0.593-1.355
		s-0.592,0.606-0.592,1.355c0,0.748,0.592,1.355,0.592,1.355S57.772,6.843,57.772,6.094z M55.263,11.483c0,0,0.01,0.848,0.539,1.377
		c0.529,0.529,1.377,0.539,1.377,0.539s-0.01-0.848-0.539-1.377C56.111,11.493,55.263,11.483,55.263,11.483z M55.263,8.233
		c0,0,0.01,0.848,0.539,1.377c0.529,0.529,1.377,0.539,1.377,0.539S57.169,9.3,56.64,8.771C56.111,8.242,55.263,8.233,55.263,8.233z
		 M57.179,10.148c0,0,0.848-0.01,1.377-0.539c0.529-0.529,0.539-1.377,0.539-1.377s-0.848,0.01-1.377,0.539
		C57.189,9.3,57.179,10.148,57.179,10.148z M57.179,11.774c0,0,0.848-0.01,1.377-0.539c0.529-0.529,0.539-1.377,0.539-1.377
		s-0.848,0.01-1.377,0.539C57.189,10.926,57.179,11.774,57.179,11.774z M55.263,9.858c0,0,0.01,0.848,0.539,1.377
		c0.529,0.529,1.377,0.539,1.377,0.539s-0.01-0.848-0.539-1.377C56.111,9.868,55.263,9.858,55.263,9.858z M57.179,13.399
		c0,0,0.848-0.01,1.377-0.539c0.529-0.529,0.539-1.377,0.539-1.377s-0.848,0.01-1.377,0.539
		C57.189,12.551,57.179,13.399,57.179,13.399z"/>
</g>
<g>
</g>
<g>
</g>
<g>
</g>
<g>
</g>
<g>
</g>
<g>
</g>
</svg>
