<?xml version="1.0" encoding="utf-8"?>
<!-- Generator: Adobe Illustrator 17.0.0, SVG Export Plug-In . SVG Version: 6.00 Build 0)  -->
<!DOCTYPE svg PUBLIC "-//W3C//DTD SVG 1.1//EN" "http://www.w3.org/Graphics/SVG/1.1/DTD/svg11.dtd">
<svg version="1.1" id="Layer_1" xmlns="http://www.w3.org/2000/svg" xmlns:xlink="http://www.w3.org/1999/xlink" x="0px" y="0px"
	 width="130px" height="39px" viewBox="0 0 130 39" enable-background="new 0 0 130 39" xml:space="preserve">
<g>
	<path fill="#FFFFFF" d="M61.062,34.426c0-4.094,11.446-8.111,11.446-12.659V10.819c0,4.548-11.446,8.566-11.446,12.659V34.426z"/>
	<path fill="#FFFFFF" d="M61.062,25.883c0-3.07-8.585-6.084-8.585-9.495v-8.21c0,3.411,8.585,6.425,8.585,9.495V25.883z"/>
	<path fill="#FFFFFF" d="M61.062,19.631c0-2.303,6.439-4.563,6.439-7.121V6.352c0,2.558-6.439,4.818-6.439,7.121V19.631z"/>
	<path fill="#FFFFFF" d="M61.062,14.412c0-1.727-4.829-3.422-4.829-5.341V4.452c0,1.919,4.829,3.614,4.829,5.341V14.412z"/>
</g>
<g>
</g>
<g>
</g>
<g>
</g>
<g>
</g>
<g>
</g>
<g>
</g>
</svg>
