<?xml version="1.0" encoding="utf-8"?>
<!-- Generator: Adobe Illustrator 17.0.0, SVG Export Plug-In . SVG Version: 6.00 Build 0)  -->
<!DOCTYPE svg PUBLIC "-//W3C//DTD SVG 1.1//EN" "http://www.w3.org/Graphics/SVG/1.1/DTD/svg11.dtd">
<svg version="1.1" id="Layer_1" xmlns="http://www.w3.org/2000/svg" xmlns:xlink="http://www.w3.org/1999/xlink" x="0px" y="0px"
	 width="130px" height="39px" viewBox="0 0 130 39" enable-background="new 0 0 130 39" xml:space="preserve">
<g>
	<path fill="#FFFFFF" d="M64.869,16.774h-0.947v1.537h0.947c0.285,0,0.505-0.066,0.658-0.198c0.154-0.132,0.23-0.326,0.23-0.581
		c0-0.251-0.077-0.44-0.23-0.567C65.374,16.837,65.154,16.774,64.869,16.774z"/>
	<path fill="#FFFFFF" d="M87.665,18.924c0.123-0.223,0.185-0.468,0.185-0.736c0-0.263-0.062-0.506-0.185-0.726
		c-0.123-0.221-0.29-0.395-0.499-0.523c-0.21-0.127-0.44-0.191-0.691-0.191s-0.484,0.064-0.7,0.191
		c-0.216,0.128-0.387,0.302-0.513,0.523c-0.125,0.22-0.188,0.463-0.188,0.726c0,0.268,0.064,0.513,0.191,0.733
		c0.127,0.221,0.298,0.396,0.512,0.525c0.214,0.13,0.446,0.195,0.697,0.195s0.481-0.063,0.691-0.191
		C87.375,19.321,87.542,19.146,87.665,18.924z"/>
	<polygon fill="#FFFFFF" points="58.947,18.758 60.38,18.758 59.667,16.994 	"/>
	<path fill="#FFFFFF" d="M32.165,16.774h-0.947v1.537h0.947c0.285,0,0.505-0.066,0.658-0.198c0.154-0.132,0.23-0.326,0.23-0.581
		c0-0.251-0.077-0.44-0.23-0.567C32.67,16.837,32.45,16.774,32.165,16.774z"/>
	<path fill="#FFFFFF" d="M44.122,16.965c-0.206-0.119-0.438-0.178-0.697-0.178h-0.882v2.815h0.927c0.251,0,0.477-0.059,0.678-0.178
		s0.358-0.284,0.47-0.496s0.169-0.454,0.169-0.727c0-0.272-0.059-0.517-0.178-0.733S44.328,17.084,44.122,16.965z"/>
	<polygon fill="#FFFFFF" points="96.12,18.758 97.554,18.758 96.84,16.994 	"/>
	<path fill="#FFFFFF" d="M23.496,16.939c-0.21-0.127-0.44-0.191-0.691-0.191s-0.484,0.064-0.7,0.191
		c-0.216,0.128-0.387,0.302-0.513,0.523c-0.125,0.22-0.188,0.463-0.188,0.726c0,0.268,0.064,0.513,0.191,0.733
		c0.127,0.221,0.298,0.396,0.512,0.525c0.214,0.13,0.446,0.195,0.697,0.195c0.251,0,0.481-0.063,0.691-0.191
		c0.209-0.128,0.376-0.303,0.499-0.525c0.123-0.223,0.185-0.468,0.185-0.736c0-0.263-0.062-0.506-0.185-0.726
		C23.872,17.24,23.705,17.066,23.496,16.939z"/>
	<path fill="#FFFFFF" d="M100.659,9.736H38.835H2.408V28.08h80.26h4.869h39.315V9.736H100.659z M19.419,20.464h-0.934l-2.199-2.919
		v2.919h-0.979v-4.541h0.934l2.205,2.932v-2.932h0.973V20.464z M24.91,19.381c-0.214,0.359-0.507,0.641-0.879,0.846
		c-0.372,0.206-0.785,0.309-1.239,0.309s-0.867-0.103-1.239-0.309c-0.372-0.205-0.665-0.486-0.879-0.843
		c-0.214-0.357-0.321-0.756-0.321-1.197c0-0.436,0.107-0.833,0.321-1.19c0.214-0.357,0.506-0.637,0.876-0.84
		c0.37-0.203,0.784-0.305,1.242-0.305c0.454,0,0.867,0.101,1.239,0.305c0.372,0.203,0.665,0.484,0.879,0.84
		c0.214,0.357,0.321,0.754,0.321,1.19C25.231,18.624,25.124,19.022,24.91,19.381z M29.382,16.793h-1.388v3.672H26.97v-3.672h-1.382
		v-0.869h3.794V16.793z M32.982,20.464l-0.72-1.297h-0.097h-0.947v1.297h-1.025v-4.541h1.972c0.592,0,1.051,0.138,1.375,0.412
		c0.324,0.275,0.486,0.663,0.486,1.164c0,0.351-0.072,0.65-0.217,0.898c-0.145,0.249-0.356,0.438-0.633,0.568l0.967,1.498
		L32.982,20.464L32.982,20.464z M38.677,20.464h-3.529v-4.541h3.457v0.85h-2.432v0.985h2.186v0.85h-2.186v1.006h2.504
		C38.677,19.614,38.677,20.464,38.677,20.464z M48.763,14.523l0.882,0.344l-0.882,0.713l-0.726-0.065L48.763,14.523z M45.523,19.371
		c-0.205,0.344-0.492,0.612-0.859,0.804c-0.367,0.192-0.787,0.288-1.258,0.288h-1.887v-4.541h1.927c0.463,0,0.875,0.097,1.239,0.289
		c0.363,0.192,0.645,0.461,0.847,0.804c0.201,0.344,0.302,0.736,0.302,1.177C45.832,18.635,45.729,19.028,45.523,19.371z
		 M50.294,20.464h-3.529v-4.541h3.457v0.85H47.79v0.985h2.186v0.85H47.79v1.006h2.504C50.294,19.614,50.294,20.464,50.294,20.464z
		 M56.449,20.464h-0.921v-3.068l-1.291,2.608h-0.662l-1.297-2.608v3.068h-0.921v-4.541h1.141l1.414,2.789l1.401-2.789h1.135v4.541
		H56.449z M61.068,20.464l-0.357-0.882H58.61l-0.357,0.882h-1.057l1.972-4.541h1.057l1.939,4.541H61.068z M65.686,20.464
		l-0.72-1.297h-0.097h-0.947v1.297h-1.025v-4.541h1.972c0.592,0,1.051,0.138,1.375,0.412c0.324,0.275,0.486,0.663,0.486,1.164
		c0,0.351-0.072,0.65-0.217,0.898c-0.145,0.249-0.356,0.438-0.633,0.568l0.967,1.498L65.686,20.464L65.686,20.464z M70.891,20.315
		c-0.327,0.147-0.654,0.221-0.983,0.221c-0.445,0-0.85-0.103-1.213-0.309c-0.363-0.205-0.649-0.487-0.856-0.846
		c-0.208-0.359-0.311-0.758-0.311-1.2c0-0.437,0.106-0.833,0.318-1.187c0.212-0.355,0.503-0.634,0.872-0.837
		c0.37-0.203,0.779-0.305,1.229-0.305c0.329,0,0.653,0.068,0.973,0.204c0.32,0.136,0.592,0.321,0.817,0.555l-0.597,0.734
		c-0.156-0.186-0.338-0.332-0.548-0.438c-0.21-0.105-0.42-0.159-0.633-0.159c-0.255,0-0.489,0.063-0.7,0.188
		c-0.212,0.125-0.379,0.296-0.499,0.512c-0.121,0.217-0.182,0.457-0.182,0.72c0,0.264,0.06,0.505,0.182,0.723
		c0.121,0.218,0.287,0.392,0.499,0.519c0.212,0.128,0.445,0.192,0.7,0.192c0.203,0,0.41-0.049,0.62-0.146s0.396-0.228,0.561-0.392
		l0.603,0.655C71.502,19.969,71.218,20.168,70.891,20.315z M76.719,20.464h-1.025v-1.791h-2.056v1.791h-1.025v-4.541h1.025v1.895
		h2.056v-1.895h1.025V20.464z M81.507,20.464h-3.529v-4.541h3.457v0.85h-2.432v0.985h2.186v0.85h-2.186v1.006h2.504V20.464z
		 M112.356,14.523l0.882,0.344l-0.882,0.713l-0.726-0.065L112.356,14.523z M88.534,21.382c-0.231,0.088-0.457,0.133-0.678,0.133
		c-0.303,0-0.578-0.086-0.827-0.257s-0.455-0.411-0.619-0.723c-0.45-0.009-0.856-0.117-1.219-0.325
		c-0.363-0.207-0.649-0.488-0.856-0.843c-0.208-0.355-0.311-0.748-0.311-1.181c0-0.436,0.107-0.833,0.321-1.19
		s0.506-0.637,0.876-0.84c0.37-0.203,0.784-0.305,1.242-0.305c0.454,0,0.867,0.101,1.239,0.305c0.372,0.203,0.665,0.484,0.879,0.84
		c0.214,0.357,0.321,0.754,0.321,1.19c0,0.502-0.139,0.95-0.418,1.346s-0.65,0.677-1.112,0.846c0.195,0.216,0.395,0.324,0.603,0.324
		c0.108,0,0.231-0.031,0.37-0.094c0.138-0.063,0.281-0.15,0.428-0.263l0.37,0.668C88.968,21.171,88.765,21.294,88.534,21.382z
		 M93.837,18.59c0,0.398-0.081,0.742-0.243,1.034c-0.162,0.292-0.394,0.517-0.697,0.675c-0.303,0.158-0.66,0.237-1.071,0.237
		c-0.411,0-0.77-0.079-1.077-0.237c-0.307-0.158-0.543-0.383-0.707-0.675s-0.247-0.636-0.247-1.034v-2.667h1.025v2.667
		c0,0.324,0.092,0.58,0.276,0.769c0.184,0.188,0.429,0.282,0.736,0.282c0.298,0,0.536-0.093,0.713-0.279
		c0.177-0.186,0.266-0.443,0.266-0.771v-2.667h1.025L93.837,18.59L93.837,18.59z M98.241,20.464l-0.357-0.882h-2.102l-0.357,0.882
		h-1.057l1.972-4.541h1.057l1.939,4.541H98.241z M103.041,20.464h-2.971v-4.541h1.025v3.646h1.946V20.464z M104.935,20.464h-1.025
		v-4.541h1.025V20.464z M109.547,16.793h-1.388v3.672h-1.025v-3.672h-1.382v-0.869h3.794L109.547,16.793L109.547,16.793z
		 M113.886,20.464h-3.529v-4.541h3.457v0.85h-2.432v0.985h2.186v0.85h-2.186v1.006h2.504V20.464z"/>
</g>
</svg>
