<?xml version="1.0" encoding="utf-8"?>
<!-- Generator: Adobe Illustrator 17.0.0, SVG Export Plug-In . SVG Version: 6.00 Build 0)  -->
<!DOCTYPE svg PUBLIC "-//W3C//DTD SVG 1.1//EN" "http://www.w3.org/Graphics/SVG/1.1/DTD/svg11.dtd">
<svg version="1.1" id="Layer_1" xmlns="http://www.w3.org/2000/svg" xmlns:xlink="http://www.w3.org/1999/xlink" x="0px" y="0px"
	 width="199px" height="78px" viewBox="0 0 199 78" enable-background="new 0 0 199 78" xml:space="preserve">
<g>
	<path fill="#FDFDFE" d="M45.88,31.032h-3.074v3.272h3.074c0.735,0,1.313-0.148,1.734-0.443c0.42-0.296,0.63-0.706,0.63-1.232
		c0-0.5-0.21-0.895-0.63-1.184C47.194,31.157,46.616,31.018,45.88,31.032z"/>
	<path fill="#FDFDFE" d="M10.598-0.168v61.837h40.003v0.034c0.446,0.48,0.924,0.869,1.344,1.125
		c1.969,1.199,4.315,1.604,5.888,3.512c1.821,2.208,2.361,6.153,4.747,7.22c0.416,0.186,0.838,0.256,1.257,0.233
		c1.633-0.087,3.231-1.593,4.303-3.28c1.348-2.119,2.363-4.687,4.184-6.146c1.545-1.238,3.785-1.919,5.967-1.831
		c2.52,0.102,4.963,1.232,6.167,3.721c0.457,0.945,0.749,2.009,1.252,2.917c0.381,0.69,0.935,1.299,1.564,1.515
		c0.2,0.068,0.407,0.098,0.618,0.078c1.437-0.141,2.086-2.234,2.834-3.779c0.656-1.353,1.671-2.519,2.91-2.825
		c0.493-0.122,0.905-0.08,1.261,0.069c1.383,0.578,1.947,2.768,3.28,3.282c0.372,0.143,0.805,0.156,1.332-0.034
		c0.824-0.297,1.465-1.144,2.288-1.449c0.367-0.136,0.736-0.151,1.096-0.072c1.129,0.247,2.164,1.426,2.732,2.753
		c0.749,1.75,0.986,3.778,1.674,5.566c0.478,1.243,1.308,2.411,2.294,2.904c0.433,0.216,0.897,0.303,1.374,0.207
		c1.949-0.391,2.582-3.151,3.394-5.025c1.06-2.447,2.313-4.893,4.118-6.579c0.517-0.483,1.097-0.885,1.707-1.191
		c1.938-0.969,4.192-0.947,5.784,0.669c0.94,0.954,1.669,2.422,2.607,3.281c0.418,0.383,0.878,0.645,1.417,0.686
		c1.02,0.076,1.96-0.746,2.603-1.741c0.643-0.996,1.075-2.177,1.668-3.221c0,0,2.683-1.543,5.394-2.599h4.917
		c1.444,1.249,1.799,2.432,1.58,5.031c-0.124,1.474-0.429,2.947-0.285,4.418c0.129,1.326,0.757,2.695,1.734,3.121
		c0.107,0.047,0.218,0.082,0.333,0.105c1.384,0.271,2.594-1.447,2.789-3.187c0.194-1.739-0.313-3.464-0.712-5.149
		c-0.086-0.363-0.164-0.516-0.232-0.585c0.044-0.088,0.089-0.185,0.15-0.345c0.349-0.921,0.95-1.609,1.664-2.103
		c0.679-0.47,1.461-0.764,2.226-0.914c1.234-0.242,2.497-0.214,3.736-0.391h30.843V-0.168H10.598z M50.058,35.822
		c-0.932,0.683-2.201,1.024-3.803,1.024h-6.562V23.051h6.346c1.523,0,2.725,0.308,3.606,0.926c0.88,0.618,1.321,1.459,1.321,2.523
		c0,0.735-0.215,1.376-0.641,1.921c-0.427,0.547-1.008,0.918-1.745,1.114c0.894,0.171,1.596,0.568,2.109,1.191
		c0.512,0.625,0.769,1.389,0.769,2.296C51.458,34.205,50.991,35.139,50.058,35.822z M57.626,36.846h-3.114V23.051h3.114V36.846z
		 M72.188,36.846h-10.72V23.051h10.504v2.581h-7.39v2.996h6.641v2.581h-6.641v3.056h7.606V36.846z M87.914,36.846h-2.838
		l-6.681-8.868v8.868H75.42V23.051h2.838l6.7,8.906v-8.906h2.956V36.846z M98.851,36.846h-3.212l-5.419-13.795h3.351l3.763,10.406
		l3.784-10.406h3.213L98.851,36.846z M117.356,36.846h-10.72V23.051h10.504v2.581h-7.39v2.996h6.641v2.581h-6.641v3.056h7.606
		V36.846z M133.081,36.846h-2.838l-6.681-8.868v8.868h-2.975V23.051h2.838l6.7,8.906v-8.906h2.956V36.846z M143.081,60.734
		c0.076-0.007,0.158-0.021,0.231-0.025c0.013,0.009,0.022,0.016,0.034,0.025H143.081z M148.945,31.151
		c0,1.209-0.246,2.255-0.739,3.143c-0.493,0.887-1.199,1.57-2.118,2.05c-0.92,0.479-2.004,0.72-3.252,0.72
		c-1.248,0-2.338-0.241-3.271-0.72c-0.933-0.479-1.649-1.162-2.149-2.05s-0.749-1.934-0.749-3.143v-8.1h3.114v8.1
		c0,0.985,0.279,1.763,0.837,2.334c0.559,0.572,1.304,0.858,2.237,0.858c0.906,0,1.629-0.283,2.168-0.849
		c0.538-0.564,0.807-1.345,0.807-2.344v-8.1h3.114V31.151z M163.251,36.846h-10.72V23.051h10.504v2.581h-7.39v2.996h6.641v2.581
		h-6.641v3.056h7.606V36.846z"/>
	<path fill="#FDFDFE" d="M47.27,28.205c0.335-0.269,0.502-0.647,0.502-1.134c0-0.473-0.167-0.841-0.502-1.103
		c-0.336-0.264-0.799-0.389-1.389-0.375h-3.074v3.016h3.074C46.471,28.609,46.934,28.474,47.27,28.205z"/>
</g>
<g>
</g>
<g>
</g>
<g>
</g>
<g>
</g>
<g>
</g>
<g>
</g>
</svg>
