<?xml version="1.0" encoding="utf-8"?>
<!-- Generator: Adobe Illustrator 17.0.0, SVG Export Plug-In . SVG Version: 6.00 Build 0)  -->
<!DOCTYPE svg PUBLIC "-//W3C//DTD SVG 1.1//EN" "http://www.w3.org/Graphics/SVG/1.1/DTD/svg11.dtd">
<svg version="1.1" id="Layer_1" xmlns="http://www.w3.org/2000/svg" xmlns:xlink="http://www.w3.org/1999/xlink" x="0px" y="0px"
	 width="130px" height="39px" viewBox="0 0 130 39" enable-background="new 0 0 130 39" xml:space="preserve">
<g>
	<path fill="#FFFFFF" d="M5.092,20.432c1.198,0.677,2.531,1.016,3.999,1.016c1.083,0,2.164-0.242,3.24-0.728
		c1.077-0.484,2.014-1.139,2.812-1.966l-1.989-2.16c-0.542,0.542-1.159,0.973-1.85,1.294c-0.691,0.32-1.372,0.48-2.042,0.48
		c-0.842,0-1.611-0.21-2.31-0.631c-0.699-0.42-1.248-0.99-1.646-1.71c-0.399-0.72-0.599-1.515-0.599-2.385
		c0-0.869,0.199-1.661,0.599-2.374c0.399-0.713,0.948-1.275,1.646-1.689c0.699-0.413,1.468-0.62,2.31-0.62
		c0.698,0,1.393,0.175,2.085,0.524c0.691,0.349,1.294,0.83,1.807,1.443l1.967-2.417c-0.742-0.77-1.64-1.379-2.694-1.828
		c-1.056-0.449-2.125-0.674-3.208-0.674c-1.483,0-2.833,0.335-4.053,1.005c-1.219,0.671-2.178,1.59-2.876,2.759
		c-0.699,1.169-1.048,2.474-1.048,3.914c0,1.454,0.342,2.772,1.026,3.956C2.954,18.825,3.895,19.754,5.092,20.432z"/>
	<polygon fill="#FFFFFF" points="21.815,15.31 28.594,15.31 28.594,21.212 31.973,21.212 31.973,6.243 28.594,6.243 28.594,12.487 
		21.815,12.487 21.815,6.243 18.436,6.243 18.436,21.212 21.815,21.212 	"/>
	<path fill="#FFFFFF" d="M39.437,20.432c0.459,0.253,0.943,0.443,1.44,0.602v0.037c0.02,0.021,0.04,0.037,0.06,0.048
		c0.07,0.036,0.142,0.024,0.212,0.051c0.034,0.013,0.069,0.039,0.1,0.08c0.047,0.047,0.085,0.136,0.103,0.248
		c0.038,0.221-0.003,0.443-0.021,0.665c-0.012,0.172,0.024,0.389,0.096,0.435c0.044-0.037,0.072-0.156,0.078-0.272
		c0.006-0.128-0.007-0.256-0.013-0.385c-0.009-0.21,0.006-0.51,0.06-0.715c0.159,0.036,0.323,0.061,0.486,0.088
		c0.013,0.035,0.03,0.056,0.041,0.098c0.035,0.136,0.066,0.29,0.129,0.324c0.023,0.01,0.048,0.014,0.071-0.002
		c0.042-0.075,0.075-0.203,0.117-0.286c0.019-0.038,0.044-0.043,0.067-0.062c0.067,0.008,0.137,0.006,0.204,0.012
		c0.007,0.004,0.013,0.007,0.02,0.014c0.182,0.17,0.238,0.648,0.35,1.005c0.023,0.068,0.058,0.076,0.092,0.068
		c0.044-0.043,0.081-0.145,0.103-0.253c0.031-0.156,0.041-0.332,0.075-0.484c0.025-0.115,0.072-0.218,0.122-0.24
		c0.022-0.021,0.048-0.024,0.076-0.003c0.047,0.03,0.089,0.111,0.135,0.138c0.044-0.033,0.073-0.133,0.108-0.209
		c0.069-0.002,0.135-0.009,0.204-0.012c0.049,0.104,0.081,0.258,0.12,0.407c0.016,0.049,0.036,0.077,0.057,0.091
		c0.028-0.019,0.053-0.072,0.07-0.132c0.023-0.079,0.036-0.172,0.056-0.254c0.015-0.06,0.042-0.091,0.064-0.133
		c0.164-0.014,0.327-0.029,0.487-0.051c0.019,0.028,0.041,0.041,0.059,0.079c0.115,0.234,0.177,0.602,0.313,0.762
		c0.019,0.002,0.038-0.004,0.056-0.02c0.107-0.093,0.131-0.436,0.212-0.628c0.07-0.166,0.175-0.201,0.264-0.306
		c0.014-0.016,0.029-0.044,0.043-0.071c0.648-0.169,1.267-0.41,1.853-0.733c1.226-0.677,2.192-1.607,2.897-2.791
		s1.059-2.495,1.059-3.935c0-1.44-0.353-2.748-1.059-3.925c-0.706-1.176-1.672-2.099-2.897-2.77
		c-1.227-0.67-2.588-1.005-4.085-1.005c-1.511,0-2.876,0.335-4.095,1.005c-1.219,0.671-2.181,1.594-2.887,2.77
		c-0.706,1.177-1.058,2.484-1.058,3.925c0,1.454,0.353,2.769,1.058,3.945C37.245,18.828,38.21,19.754,39.437,20.432z M39.565,11.311
		c0.413-0.728,0.976-1.301,1.689-1.722c0.712-0.42,1.482-0.631,2.31-0.631c0.827,0,1.586,0.211,2.277,0.631
		c0.691,0.421,1.241,0.994,1.647,1.722c0.406,0.727,0.609,1.525,0.609,2.396c0,0.884-0.203,1.692-0.609,2.427
		s-0.956,1.312-1.647,1.732s-1.451,0.631-2.277,0.631c-0.827,0-1.593-0.214-2.299-0.642c-0.706-0.428-1.269-1.005-1.689-1.732
		c-0.421-0.727-0.631-1.532-0.631-2.416C38.945,12.836,39.151,12.038,39.565,11.311z"/>
	<path fill="#FFFFFF" d="M57.465,20.432c1.198,0.677,2.531,1.016,3.999,1.016c1.083,0,2.164-0.242,3.24-0.728
		c1.077-0.484,2.013-1.139,2.812-1.966l-1.988-2.16c-0.542,0.542-1.159,0.973-1.85,1.294c-0.691,0.32-1.372,0.48-2.042,0.48
		c-0.842,0-1.611-0.21-2.31-0.631c-0.699-0.42-1.248-0.99-1.646-1.71c-0.399-0.72-0.599-1.515-0.599-2.385
		c0-0.869,0.199-1.661,0.599-2.374c0.399-0.713,0.948-1.275,1.646-1.689c0.699-0.413,1.468-0.62,2.31-0.62
		c0.698,0,1.393,0.175,2.085,0.524c0.691,0.349,1.294,0.83,1.807,1.443l1.967-2.417C66.753,7.74,65.855,7.13,64.8,6.681
		c-1.056-0.449-2.125-0.674-3.208-0.674c-1.483,0-2.833,0.335-4.053,1.005c-1.219,0.671-2.178,1.59-2.876,2.759
		c-0.699,1.169-1.048,2.474-1.048,3.914c0,1.454,0.342,2.772,1.026,3.956C55.326,18.825,56.267,19.754,57.465,20.432z"/>
	<path fill="#FFFFFF" d="M84.485,17.641c0.705-1.184,1.059-2.495,1.059-3.935c0-1.44-0.354-2.748-1.059-3.925
		c-0.706-1.176-1.672-2.099-2.897-2.77C80.361,6.342,79,6.007,77.503,6.007c-1.512,0-2.876,0.335-4.096,1.005
		c-1.219,0.671-2.181,1.594-2.887,2.77c-0.706,1.177-1.059,2.484-1.059,3.925c0,1.454,0.353,2.769,1.059,3.945
		c0.706,1.176,1.672,2.103,2.897,2.78c1.227,0.677,2.588,1.016,4.085,1.016s2.858-0.339,4.085-1.016
		C82.813,19.754,83.779,18.825,84.485,17.641z M79.823,17.866c-0.691,0.421-1.451,0.631-2.277,0.631
		c-0.827,0-1.594-0.214-2.299-0.642c-0.706-0.428-1.27-1.005-1.689-1.732c-0.421-0.727-0.631-1.532-0.631-2.416
		c0-0.87,0.206-1.669,0.62-2.396c0.413-0.728,0.976-1.301,1.689-1.722c0.712-0.42,1.482-0.631,2.31-0.631
		c0.826,0,1.586,0.211,2.277,0.631c0.691,0.421,1.24,0.994,1.646,1.722c0.406,0.727,0.609,1.525,0.609,2.396
		c0,0.884-0.203,1.692-0.609,2.427S80.515,17.445,79.823,17.866z"/>
	<path fill="#FFFFFF" d="M105.175,18.304h6.93l1.176,2.908h3.614L110.5,6.243h-3.485l-6.501,14.969h3.485L105.175,18.304z
		 M108.661,9.771l2.353,5.817h-4.727L108.661,9.771z"/>
	<polygon fill="#FFFFFF" points="116.701,6.243 116.701,9.108 121.257,9.108 121.257,21.212 124.636,21.212 124.636,9.108 
		129.212,9.108 129.212,6.243 	"/>
	<polygon fill="#FFFFFF" points="57.611,29.367 55.503,29.367 55.503,28.021 57.33,28.021 57.33,27.705 55.503,27.705 
		55.503,26.426 57.545,26.426 57.545,26.108 55.151,26.108 55.151,29.685 57.611,29.685 	"/>
	<polygon fill="#FFFFFF" points="61.274,29.137 59.054,26.108 58.681,26.108 58.681,29.685 59.033,29.685 59.033,26.656 
		61.249,29.685 61.622,29.685 61.622,26.108 61.274,26.108 	"/>
	<path fill="#FFFFFF" d="M65.456,29.168c-0.111,0.126-0.27,0.189-0.478,0.189c-0.144,0-0.283-0.037-0.419-0.11
		c-0.137-0.073-0.259-0.18-0.369-0.319l-0.179,0.266c0.123,0.164,0.268,0.289,0.435,0.376s0.346,0.131,0.537,0.131
		c0.314,0,0.559-0.093,0.734-0.279c0.175-0.186,0.263-0.449,0.263-0.79v-2.527h-1.647v0.322h1.289v2.194
		C65.623,28.859,65.567,29.042,65.456,29.168z"/>
	<path fill="#FFFFFF" d="M67.126,26.979c-0.167,0.276-0.25,0.58-0.25,0.91c0,0.331,0.083,0.637,0.25,0.916
		c0.168,0.279,0.394,0.501,0.679,0.665c0.284,0.164,0.598,0.245,0.938,0.245s0.654-0.081,0.938-0.245
		c0.285-0.164,0.511-0.386,0.678-0.665s0.251-0.585,0.251-0.916c0-0.33-0.084-0.634-0.251-0.91s-0.393-0.495-0.678-0.657
		c-0.284-0.162-0.598-0.243-0.938-0.243s-0.654,0.081-0.938,0.243C67.52,26.483,67.294,26.702,67.126,26.979z M68.748,26.396
		c0.27,0,0.52,0.066,0.75,0.199c0.229,0.133,0.413,0.313,0.55,0.542c0.136,0.229,0.204,0.479,0.204,0.752
		c0,0.273-0.068,0.525-0.204,0.758c-0.137,0.231-0.32,0.415-0.55,0.55c-0.23,0.135-0.48,0.202-0.75,0.202
		c-0.272,0-0.525-0.067-0.757-0.202c-0.232-0.135-0.416-0.318-0.553-0.55c-0.137-0.232-0.205-0.484-0.205-0.758
		c0-0.272,0.068-0.523,0.205-0.752s0.32-0.409,0.553-0.542C68.223,26.462,68.476,26.396,68.748,26.396z"/>
	<rect x="71.593" y="26.108" fill="#FFFFFF" width="0.353" height="3.576"/>
	<polygon fill="#FFFFFF" points="73.628,28.021 75.455,28.021 75.455,27.705 73.628,27.705 73.628,26.426 75.67,26.426 
		75.67,26.108 73.275,26.108 73.275,29.685 75.736,29.685 75.736,29.367 73.628,29.367 	"/>
	<path fill="#FFFFFF" d="M58.324,2.524h1.191l0.255,0.571H60L59.033,0.95h-0.221l-0.967,2.146h0.228L58.324,2.524z M58.917,1.173
		l0.516,1.16h-1.025L58.917,1.173z"/>
	<path fill="#FFFFFF" d="M60.436,3.12c0.039,0,0.071-0.014,0.098-0.041c0.026-0.028,0.04-0.062,0.04-0.1
		c0-0.039-0.014-0.072-0.04-0.099c-0.027-0.026-0.06-0.04-0.098-0.04c-0.039,0-0.071,0.014-0.097,0.04
		c-0.026,0.026-0.039,0.06-0.039,0.099c0,0.041,0.013,0.074,0.039,0.101C60.365,3.106,60.397,3.12,60.436,3.12z"/>
	<path fill="#FFFFFF" d="M62.615,2.954c0.17-0.094,0.303-0.223,0.4-0.387c0.097-0.163,0.146-0.345,0.146-0.543
		s-0.049-0.38-0.146-0.545s-0.23-0.294-0.399-0.389c-0.169-0.094-0.355-0.141-0.56-0.141h-0.862v2.146h0.856
		C62.257,3.095,62.445,3.048,62.615,2.954z M61.406,1.14h0.648c0.164,0,0.313,0.039,0.45,0.116c0.136,0.078,0.244,0.185,0.324,0.319
		c0.08,0.135,0.12,0.284,0.12,0.448s-0.04,0.312-0.118,0.446c-0.079,0.135-0.186,0.24-0.321,0.318
		c-0.135,0.077-0.283,0.116-0.445,0.116h-0.657V1.14z"/>
	<path fill="#FFFFFF" d="M64.592,3.114c0.278,0,0.496-0.079,0.652-0.236c0.156-0.158,0.235-0.376,0.235-0.654V0.947h-0.212v1.276
		c0,0.222-0.06,0.394-0.178,0.516c-0.119,0.123-0.284,0.185-0.497,0.185s-0.379-0.062-0.499-0.185
		c-0.12-0.122-0.179-0.294-0.179-0.516V0.947h-0.212v1.276c0,0.278,0.079,0.496,0.236,0.654C64.096,3.035,64.314,3.114,64.592,3.114
		z"/>
	<path fill="#FFFFFF" d="M66.572,2.966c0.169,0.099,0.355,0.147,0.559,0.147c0.143,0,0.283-0.028,0.42-0.086
		c0.138-0.058,0.259-0.135,0.365-0.233l-0.129-0.138c-0.088,0.081-0.188,0.146-0.301,0.191s-0.228,0.069-0.347,0.069
		c-0.166,0-0.317-0.041-0.456-0.121c-0.138-0.081-0.247-0.19-0.328-0.327c-0.081-0.138-0.121-0.288-0.121-0.451
		c0-0.164,0.04-0.314,0.121-0.453c0.081-0.138,0.19-0.247,0.328-0.327c0.139-0.079,0.29-0.119,0.456-0.119
		c0.121,0,0.237,0.023,0.35,0.07c0.113,0.047,0.212,0.112,0.298,0.196l0.126-0.147c-0.103-0.096-0.221-0.171-0.355-0.226
		c-0.136-0.054-0.275-0.081-0.421-0.081c-0.203,0-0.39,0.049-0.561,0.146c-0.171,0.098-0.307,0.229-0.406,0.395
		c-0.101,0.166-0.15,0.349-0.15,0.547s0.05,0.382,0.148,0.549C66.268,2.735,66.402,2.868,66.572,2.966z"/>
	<polygon fill="#FFFFFF" points="69.979,2.905 68.714,2.905 68.714,2.097 69.81,2.097 69.81,1.908 68.714,1.908 68.714,1.14 
		69.939,1.14 69.939,0.95 68.503,0.95 68.503,3.095 69.979,3.095 	"/>
	<path fill="#FFFFFF" d="M70.832,2.402h0.589c0.035,0,0.085-0.002,0.15-0.007l0.464,0.7h0.245l-0.516-0.74
		c0.16-0.047,0.283-0.13,0.369-0.248c0.086-0.119,0.129-0.268,0.129-0.445c0-0.227-0.073-0.402-0.22-0.526S71.689,0.95,71.421,0.95
		H70.62v2.146h0.212V2.402z M70.832,1.14h0.589c0.205,0,0.362,0.045,0.473,0.135c0.111,0.09,0.166,0.221,0.166,0.393
		c0,0.177-0.055,0.311-0.166,0.404c-0.11,0.093-0.268,0.14-0.473,0.14h-0.589V1.14z"/>
	<polygon fill="#FFFFFF" points="73.174,2.156 74.184,2.156 74.184,1.965 73.174,1.965 73.174,1.14 74.307,1.14 74.307,0.95 
		72.963,0.95 72.963,3.095 73.174,3.095 	"/>
	<path fill="#FFFFFF" d="M89.495,21.238c0.133,0.029,0.271,0.019,0.405,0.04c0.065,0.01,0.132,0.03,0.19,0.062
		c0.089,0.036,0.163,0.107,0.197,0.195c0.073,0.174-0.007,0.347-0.04,0.521c-0.023,0.135,0.046,0.305,0.184,0.341
		c0.084-0.029,0.137-0.122,0.148-0.213c0.012-0.1-0.014-0.201-0.024-0.301c-0.022-0.213,0.032-0.54,0.228-0.67h0.544
		c0.136,0.046,0.261,0.12,0.349,0.256c0.067,0.107,0.127,0.227,0.247,0.254c0.044,0.008,0.092,0.011,0.136-0.002
		c0.08-0.059,0.143-0.159,0.223-0.224c0.136-0.11,0.329-0.112,0.495-0.046c0.021,0.003,0.041,0.009,0.062,0.017
		c0.347,0.134,0.454,0.508,0.668,0.788c0.045,0.054,0.11,0.059,0.177,0.053c0.084-0.034,0.155-0.113,0.196-0.198
		c0.059-0.122,0.079-0.26,0.143-0.38c0.049-0.091,0.137-0.171,0.234-0.188c0.043-0.016,0.092-0.019,0.145-0.002
		c0.09,0.024,0.17,0.087,0.258,0.108c0.114-0.035,0.162-0.185,0.281-0.224c0.047-0.033,0.102-0.048,0.169-0.031
		c0.194,0.053,0.267,0.234,0.374,0.401c0.03,0.038,0.068,0.06,0.109,0.071c0.054-0.015,0.101-0.056,0.134-0.103
		c0.043-0.062,0.068-0.135,0.107-0.199c0.103-0.17,0.312-0.247,0.528-0.254c0.017-0.004,0.034-0.007,0.051-0.009
		c0.207-0.02,0.421,0.033,0.588,0.18c0.22,0.183,0.339,0.472,0.598,0.597c0.036,0.002,0.072-0.003,0.108-0.016
		c0.204-0.073,0.25-0.342,0.406-0.493c0.135-0.13,0.335-0.158,0.504-0.24c0.036-0.017,0.077-0.044,0.115-0.077v-0.041h0.115v-2.951
		H92.43V6.243h-3.379v14.969h0.364C89.442,21.222,89.468,21.232,89.495,21.238z"/>
	<path fill="#FFFFFF" d="M2.808,28.853h30.488c0.161,0.072,0.295,0.198,0.358,0.36c0.141,0.333-0.013,0.666-0.077,0.999
		c-0.045,0.258,0.087,0.585,0.353,0.653c0.16-0.056,0.263-0.235,0.284-0.408c0.024-0.192-0.026-0.385-0.047-0.578
		c-0.031-0.296,0.007-0.72,0.173-1.026h1.787c0.069,0.067,0.133,0.144,0.189,0.232c0.128,0.205,0.243,0.435,0.474,0.487
		c0.084,0.015,0.177,0.021,0.26-0.003c0.154-0.112,0.273-0.304,0.427-0.429c0.261-0.211,0.631-0.214,0.949-0.087
		c0.039,0.007,0.079,0.017,0.118,0.033c0.666,0.256,0.871,0.973,1.281,1.511c0.086,0.103,0.211,0.114,0.339,0.102
		c0.162-0.064,0.298-0.217,0.376-0.38c0.113-0.234,0.152-0.499,0.275-0.728c0.093-0.174,0.263-0.328,0.448-0.36
		c0.082-0.031,0.176-0.036,0.278-0.004c0.172,0.045,0.325,0.167,0.495,0.208c0.219-0.067,0.311-0.354,0.538-0.429
		c0.089-0.063,0.196-0.092,0.324-0.06c0.371,0.102,0.512,0.448,0.717,0.768c0.057,0.074,0.13,0.116,0.209,0.137
		c0.103-0.028,0.194-0.108,0.257-0.198c0.082-0.119,0.13-0.258,0.205-0.382c0.129-0.213,0.349-0.343,0.598-0.416h1.19
		c0.159,0.058,0.313,0.138,0.448,0.257c0.421,0.351,0.65,0.905,1.146,1.145c0.069,0.003,0.138-0.006,0.206-0.031
		c0.391-0.14,0.48-0.656,0.779-0.945c0.237-0.23,0.581-0.296,0.886-0.427h3.914v-1.535H2.808V28.853z"/>
	<path fill="#FFFFFF" d="M128.999,27.317H78.353v1.535h11.327c0.305,0.131,0.649,0.197,0.886,0.427
		c0.299,0.289,0.387,0.805,0.779,0.945c0.068,0.024,0.137,0.033,0.206,0.031c0.496-0.24,0.725-0.794,1.146-1.145
		c0.135-0.119,0.288-0.199,0.448-0.257h1.19c0.25,0.073,0.469,0.203,0.598,0.416c0.075,0.124,0.123,0.263,0.205,0.382
		c0.062,0.09,0.153,0.17,0.257,0.198c0.079-0.021,0.152-0.063,0.209-0.137c0.205-0.32,0.346-0.666,0.717-0.768
		c0.128-0.032,0.235-0.003,0.324,0.06c0.227,0.076,0.319,0.362,0.538,0.429c0.17-0.04,0.323-0.162,0.495-0.208
		c0.102-0.031,0.196-0.027,0.278,0.004c0.185,0.032,0.355,0.187,0.448,0.36c0.123,0.229,0.162,0.494,0.275,0.728
		c0.078,0.163,0.214,0.315,0.376,0.38c0.127,0.012,0.253,0,0.339-0.102c0.41-0.538,0.615-1.255,1.281-1.511
		c0.039-0.016,0.079-0.026,0.118-0.033c0.318-0.127,0.688-0.124,0.949,0.087c0.154,0.125,0.274,0.317,0.427,0.429
		c0.083,0.025,0.176,0.018,0.26,0.003c0.23-0.051,0.346-0.282,0.474-0.487c0.057-0.088,0.12-0.164,0.189-0.232h1.787
		c0.166,0.306,0.204,0.73,0.173,1.026c-0.02,0.193-0.07,0.386-0.047,0.578c0.021,0.173,0.124,0.353,0.284,0.408
		c0.266-0.068,0.398-0.395,0.353-0.653c-0.064-0.333-0.218-0.666-0.077-0.999c0.063-0.161,0.197-0.288,0.358-0.36h23.075V27.317z"/>
	<path fill="#FFFFFF" d="M68.589,36.666c0.092,0,0.16-0.035,0.204-0.106s0.065-0.183,0.065-0.336c0-0.155-0.021-0.268-0.065-0.338
		s-0.112-0.105-0.204-0.105c-0.094,0-0.163,0.035-0.207,0.105s-0.065,0.183-0.065,0.338c0,0.153,0.021,0.265,0.065,0.336
		S68.495,36.666,68.589,36.666z"/>
	<path fill="#FFFFFF" d="M62.49,36.199c0.045-0.038,0.067-0.094,0.067-0.168c0-0.073-0.022-0.128-0.067-0.165
		c-0.044-0.037-0.108-0.056-0.191-0.056h-0.275v0.446h0.275C62.382,36.257,62.446,36.238,62.49,36.199z"/>
	<polygon fill="#FFFFFF" points="60.787,35.875 60.578,36.387 60.994,36.387 	"/>
	<path fill="#FFFFFF" d="M57.072,38.572h18.496v-4.281H57.072V38.572z M72.652,35.563h1.004v0.247H72.95v0.286h0.635v0.247H72.95
		v0.292h0.728v0.247h-1.025V35.563z M70.805,35.563h0.331l0.411,0.811l0.407-0.811h0.33v1.319h-0.268v-0.892l-0.375,0.758H71.45
		l-0.377-0.758v0.892h-0.268V35.563z M69.92,35.156l0.195,0.289l-0.211,0.019l-0.241-0.207L69.92,35.156z M69.471,35.563h1.005
		v0.247h-0.707v0.286h0.636v0.247h-0.636v0.292h0.728v0.247h-1.025V35.563z M68.16,35.726c0.101-0.115,0.243-0.173,0.429-0.173
		s0.327,0.058,0.427,0.173c0.099,0.115,0.148,0.281,0.148,0.498c0,0.215-0.05,0.38-0.148,0.496c-0.1,0.116-0.241,0.175-0.427,0.175
		s-0.328-0.059-0.429-0.175c-0.1-0.116-0.149-0.281-0.149-0.496C68.011,36.007,68.06,35.841,68.16,35.726z M67.287,35.551
		c0.088,0,0.166,0.014,0.233,0.042c0.068,0.028,0.121,0.068,0.159,0.119c0.037,0.051,0.056,0.11,0.056,0.178
		c0,0.066-0.021,0.136-0.065,0.207c-0.044,0.072-0.106,0.149-0.187,0.232l-0.304,0.305h0.605v0.249h-0.991v-0.205l0.487-0.504
		c0.044-0.044,0.079-0.087,0.105-0.129c0.025-0.042,0.038-0.079,0.038-0.11c0-0.041-0.016-0.073-0.048-0.097
		s-0.076-0.035-0.133-0.035s-0.117,0.015-0.181,0.044c-0.064,0.028-0.127,0.068-0.188,0.12l-0.116-0.223
		C66.932,35.615,67.108,35.551,67.287,35.551z M66.024,35.353h0.245l-0.607,1.741h-0.243L66.024,35.353z M64.471,36.43
		c-0.023-0.022-0.053-0.04-0.089-0.054s-0.085-0.029-0.148-0.047c-0.09-0.025-0.164-0.051-0.221-0.076
		c-0.057-0.024-0.106-0.063-0.148-0.114c-0.042-0.052-0.062-0.12-0.062-0.206c0-0.079,0.021-0.148,0.064-0.208
		c0.042-0.06,0.102-0.105,0.179-0.138s0.166-0.048,0.268-0.048c0.091,0,0.18,0.014,0.268,0.04s0.166,0.062,0.234,0.105L64.7,35.931
		c-0.067-0.041-0.14-0.074-0.215-0.099c-0.076-0.024-0.141-0.036-0.195-0.036c-0.051,0-0.092,0.009-0.123,0.027
		c-0.03,0.02-0.045,0.047-0.045,0.083c0,0.047,0.021,0.082,0.065,0.106c0.043,0.024,0.11,0.051,0.201,0.077s0.165,0.053,0.223,0.079
		s0.108,0.065,0.15,0.118s0.062,0.123,0.062,0.209c0,0.085-0.022,0.157-0.067,0.218c-0.044,0.062-0.105,0.107-0.184,0.139
		s-0.167,0.047-0.266,0.047c-0.107,0-0.212-0.019-0.315-0.057c-0.103-0.037-0.192-0.089-0.268-0.154l0.119-0.243
		c0.067,0.061,0.144,0.109,0.23,0.146c0.087,0.036,0.166,0.055,0.238,0.055c0.062,0,0.109-0.012,0.144-0.034
		s0.052-0.055,0.052-0.098C64.506,36.479,64.494,36.451,64.471,36.43z M63.166,35.563h0.298v1.319h-0.298V35.563z M61.726,35.563
		h0.573c0.172,0,0.305,0.04,0.399,0.12c0.094,0.079,0.141,0.192,0.141,0.338c0,0.102-0.021,0.188-0.063,0.261
		s-0.104,0.128-0.184,0.165l0.281,0.436h-0.337l-0.209-0.377h-0.028h-0.275v0.377h-0.298V35.563z M60.642,35.563h0.307l0.563,1.319
		h-0.318l-0.104-0.256h-0.61l-0.104,0.256h-0.308L60.642,35.563z M58.961,35.563h0.56c0.168,0,0.299,0.04,0.39,0.12
		c0.092,0.079,0.138,0.192,0.138,0.338c0,0.153-0.046,0.272-0.139,0.357c-0.092,0.085-0.222,0.127-0.389,0.127h-0.262v0.377h-0.298
		V35.563z"/>
	<path fill="#FFFFFF" d="M59.699,36.199c0.045-0.038,0.067-0.094,0.067-0.168c0-0.073-0.022-0.128-0.067-0.165
		c-0.044-0.037-0.109-0.056-0.193-0.056h-0.247v0.446h0.247C59.59,36.257,59.655,36.238,59.699,36.199z"/>
	<rect x="78.353" y="25.821" fill="#FFFFFF" width="50.646" height="0.262"/>
	<rect x="2.604" y="25.818" fill="#FFFFFF" width="50.647" height="0.262"/>
</g>
<g>
</g>
<g>
</g>
<g>
</g>
<g>
</g>
<g>
</g>
<g>
</g>
</svg>
