<?xml version="1.0" encoding="utf-8"?>
<!-- Generator: Adobe Illustrator 17.0.0, SVG Export Plug-In . SVG Version: 6.00 Build 0)  -->
<!DOCTYPE svg PUBLIC "-//W3C//DTD SVG 1.1//EN" "http://www.w3.org/Graphics/SVG/1.1/DTD/svg11.dtd">
<svg version="1.1" id="Layer_1" xmlns="http://www.w3.org/2000/svg" xmlns:xlink="http://www.w3.org/1999/xlink" x="0px" y="0px"
	 width="130px" height="39px" viewBox="0 0 130 39" enable-background="new 0 0 130 39" xml:space="preserve">
<path d="M4.851,22.586c1.198,0.677,2.531,1.016,3.999,1.016c1.083,0,2.164-0.242,3.24-0.728c1.077-0.484,2.014-1.139,2.812-1.966
	l-1.989-2.16c-0.542,0.542-1.159,0.973-1.85,1.294c-0.691,0.32-1.372,0.48-2.042,0.48c-0.842,0-1.611-0.21-2.31-0.631
	c-0.699-0.42-1.248-0.99-1.646-1.71c-0.399-0.72-0.599-1.515-0.599-2.385c0-0.869,0.199-1.661,0.599-2.374
	c0.399-0.713,0.948-1.275,1.646-1.689c0.699-0.413,1.468-0.62,2.31-0.62c0.698,0,1.393,0.175,2.085,0.524
	c0.691,0.349,1.294,0.83,1.807,1.443l1.967-2.417c-0.742-0.77-1.64-1.379-2.694-1.828c-1.056-0.449-2.125-0.674-3.208-0.674
	c-1.483,0-2.833,0.335-4.053,1.005c-1.219,0.671-2.178,1.59-2.876,2.759c-0.699,1.169-1.048,2.474-1.048,3.914
	c0,1.454,0.342,2.772,1.026,3.956C2.713,20.979,3.654,21.908,4.851,22.586z"/>
<polygon points="21.574,17.464 28.353,17.464 28.353,23.366 31.732,23.366 31.732,8.397 28.353,8.397 28.353,14.641 21.574,14.641 
	21.574,8.397 18.195,8.397 18.195,23.366 21.574,23.366 "/>
<path d="M39.196,22.586c0.459,0.253,0.943,0.443,1.44,0.602v0.037c0.02,0.021,0.04,0.037,0.06,0.048
	c0.07,0.036,0.142,0.024,0.212,0.051c0.034,0.013,0.069,0.039,0.1,0.08c0.047,0.047,0.085,0.136,0.103,0.248
	c0.038,0.221-0.003,0.443-0.021,0.665c-0.012,0.172,0.024,0.389,0.096,0.435c0.044-0.037,0.072-0.156,0.078-0.272
	c0.006-0.128-0.007-0.256-0.013-0.385c-0.009-0.21,0.006-0.51,0.06-0.715c0.159,0.036,0.323,0.061,0.486,0.088
	c0.013,0.035,0.03,0.056,0.041,0.098c0.035,0.136,0.066,0.29,0.129,0.324c0.023,0.01,0.048,0.014,0.071-0.002
	c0.042-0.075,0.075-0.203,0.117-0.286c0.019-0.038,0.044-0.043,0.067-0.062c0.067,0.008,0.137,0.006,0.204,0.012
	c0.007,0.004,0.013,0.007,0.02,0.014c0.182,0.17,0.238,0.648,0.35,1.005c0.023,0.068,0.058,0.076,0.092,0.068
	c0.044-0.043,0.081-0.145,0.103-0.253c0.031-0.156,0.041-0.332,0.075-0.484c0.025-0.115,0.072-0.218,0.122-0.24
	c0.022-0.021,0.048-0.024,0.076-0.003c0.047,0.03,0.089,0.111,0.135,0.138c0.044-0.033,0.073-0.133,0.108-0.209
	c0.069-0.002,0.135-0.009,0.204-0.012c0.049,0.104,0.081,0.258,0.12,0.407c0.016,0.049,0.036,0.077,0.057,0.091
	c0.028-0.019,0.053-0.072,0.07-0.132c0.023-0.079,0.036-0.172,0.056-0.254c0.015-0.06,0.042-0.091,0.064-0.133
	c0.164-0.014,0.327-0.029,0.487-0.051c0.019,0.028,0.041,0.041,0.059,0.079c0.115,0.234,0.177,0.602,0.313,0.762
	c0.019,0.002,0.038-0.004,0.056-0.02c0.107-0.093,0.131-0.436,0.212-0.628c0.07-0.166,0.175-0.201,0.264-0.306
	c0.014-0.016,0.029-0.044,0.043-0.071c0.648-0.169,1.267-0.41,1.853-0.733c1.226-0.677,2.192-1.607,2.897-2.791
	s1.059-2.495,1.059-3.935c0-1.44-0.353-2.748-1.059-3.925c-0.706-1.176-1.672-2.099-2.897-2.77c-1.227-0.67-2.588-1.005-4.085-1.005
	c-1.511,0-2.876,0.335-4.095,1.005c-1.219,0.671-2.181,1.594-2.887,2.77c-0.706,1.177-1.058,2.484-1.058,3.925
	c0,1.454,0.353,2.769,1.058,3.945C37.004,20.982,37.969,21.908,39.196,22.586z M39.324,13.465c0.413-0.728,0.976-1.301,1.689-1.722
	c0.712-0.42,1.482-0.631,2.31-0.631c0.827,0,1.586,0.211,2.277,0.631c0.691,0.421,1.241,0.994,1.647,1.722
	c0.406,0.727,0.609,1.525,0.609,2.396c0,0.884-0.203,1.692-0.609,2.427S46.291,19.6,45.6,20.02s-1.451,0.631-2.277,0.631
	c-0.827,0-1.593-0.214-2.299-0.642s-1.269-1.005-1.689-1.732c-0.421-0.727-0.631-1.532-0.631-2.416
	C38.704,14.99,38.91,14.192,39.324,13.465z"/>
<path d="M57.224,22.586c1.198,0.677,2.531,1.016,3.999,1.016c1.083,0,2.164-0.242,3.24-0.728c1.077-0.484,2.013-1.139,2.812-1.966
	l-1.988-2.16c-0.542,0.542-1.159,0.973-1.85,1.294c-0.691,0.32-1.372,0.48-2.042,0.48c-0.842,0-1.611-0.21-2.31-0.631
	c-0.699-0.42-1.248-0.99-1.646-1.71c-0.399-0.72-0.599-1.515-0.599-2.385c0-0.869,0.199-1.661,0.599-2.374
	c0.399-0.713,0.948-1.275,1.646-1.689c0.699-0.413,1.468-0.62,2.31-0.62c0.698,0,1.393,0.175,2.085,0.524
	c0.691,0.349,1.294,0.83,1.807,1.443l1.967-2.417c-0.742-0.769-1.64-1.379-2.695-1.828c-1.056-0.449-2.125-0.674-3.208-0.674
	c-1.483,0-2.833,0.335-4.053,1.005c-1.219,0.671-2.178,1.59-2.876,2.759c-0.699,1.169-1.048,2.474-1.048,3.914
	c0,1.454,0.342,2.772,1.026,3.956C55.085,20.979,56.026,21.908,57.224,22.586z"/>
<path d="M84.244,19.795c0.705-1.184,1.059-2.495,1.059-3.935c0-1.44-0.354-2.748-1.059-3.925c-0.706-1.176-1.672-2.099-2.897-2.77
	c-1.227-0.669-2.588-1.004-4.085-1.004c-1.512,0-2.876,0.335-4.096,1.005c-1.219,0.671-2.181,1.594-2.887,2.77
	c-0.706,1.177-1.059,2.484-1.059,3.925c0,1.454,0.353,2.769,1.059,3.945s1.672,2.103,2.897,2.78
	c1.227,0.677,2.588,1.016,4.085,1.016s2.858-0.339,4.085-1.016C82.572,21.908,83.538,20.979,84.244,19.795z M79.582,20.02
	c-0.691,0.421-1.451,0.631-2.277,0.631c-0.827,0-1.594-0.214-2.299-0.642c-0.706-0.428-1.27-1.005-1.689-1.732
	c-0.421-0.727-0.631-1.532-0.631-2.416c0-0.87,0.206-1.669,0.62-2.396c0.413-0.728,0.976-1.301,1.689-1.722
	c0.712-0.42,1.482-0.631,2.31-0.631c0.826,0,1.586,0.211,2.277,0.631c0.691,0.421,1.24,0.994,1.646,1.722
	c0.406,0.727,0.609,1.525,0.609,2.396c0,0.884-0.203,1.692-0.609,2.427S80.274,19.599,79.582,20.02z"/>
<path d="M104.934,20.458h6.93l1.176,2.908h3.614l-6.395-14.969h-3.485l-6.501,14.969h3.485L104.934,20.458z M108.42,11.925
	l2.353,5.817h-4.727L108.42,11.925z"/>
<polygon points="116.46,8.397 116.46,11.262 121.016,11.262 121.016,23.366 124.395,23.366 124.395,11.262 128.971,11.262 
	128.971,8.397 "/>
<g>
	<polygon points="51.75,31.879 48.129,31.879 48.129,29.567 51.267,29.567 51.267,29.025 48.129,29.025 48.129,26.828 
		51.637,26.828 51.637,26.282 47.525,26.282 47.525,32.425 51.75,32.425 	"/>
	<polygon points="58.041,31.484 54.228,26.282 53.588,26.282 53.588,32.425 54.192,32.425 54.192,27.223 57.998,32.425 
		58.639,32.425 58.639,26.282 58.041,26.282 	"/>
	<path d="M65.224,31.537c-0.191,0.216-0.464,0.325-0.821,0.325c-0.247,0-0.486-0.064-0.72-0.189
		c-0.235-0.125-0.445-0.309-0.634-0.548l-0.307,0.457c0.211,0.282,0.46,0.496,0.747,0.646c0.287,0.149,0.594,0.225,0.922,0.225
		c0.539,0,0.96-0.16,1.261-0.479c0.301-0.319,0.452-0.771,0.452-1.357v-4.34h-2.829v0.553h2.214v3.768
		C65.51,31.007,65.414,31.321,65.224,31.537z"/>
	<path d="M68.092,27.778c-0.287,0.474-0.429,0.996-0.429,1.563c0,0.568,0.143,1.094,0.429,1.573c0.289,0.479,0.677,0.86,1.166,1.142
		c0.488,0.282,1.027,0.421,1.611,0.421c0.584,0,1.123-0.139,1.611-0.421c0.489-0.282,0.878-0.663,1.164-1.142
		c0.287-0.479,0.431-1.005,0.431-1.573c0-0.567-0.144-1.089-0.431-1.563s-0.675-0.85-1.164-1.128
		c-0.488-0.278-1.027-0.417-1.611-0.417c-0.584,0-1.123,0.139-1.611,0.417C68.768,26.926,68.38,27.302,68.092,27.778z
		 M70.878,26.776c0.464,0,0.893,0.113,1.288,0.342c0.393,0.228,0.709,0.538,0.945,0.931c0.234,0.393,0.35,0.823,0.35,1.292
		c0,0.469-0.117,0.902-0.35,1.302c-0.235,0.397-0.55,0.713-0.945,0.945c-0.395,0.232-0.824,0.347-1.288,0.347
		c-0.467,0-0.902-0.115-1.3-0.347c-0.398-0.232-0.714-0.546-0.95-0.945c-0.235-0.398-0.352-0.831-0.352-1.302
		c0-0.467,0.117-0.898,0.352-1.292c0.235-0.393,0.55-0.702,0.95-0.931C69.976,26.89,70.41,26.776,70.878,26.776z"/>
	<rect x="75.764" y="26.282" width="0.606" height="6.142"/>
	<polygon points="79.259,29.567 82.397,29.567 82.397,29.025 79.259,29.025 79.259,26.828 82.766,26.828 82.766,26.282 
		78.653,26.282 78.653,32.425 82.879,32.425 82.879,31.879 79.259,31.879 	"/>
</g>
<path d="M89.254,23.392c0.133,0.029,0.271,0.019,0.405,0.04c0.065,0.01,0.132,0.03,0.19,0.062c0.089,0.036,0.163,0.107,0.197,0.195
	c0.073,0.174-0.007,0.347-0.04,0.521c-0.023,0.135,0.046,0.305,0.184,0.341c0.084-0.029,0.137-0.122,0.148-0.213
	c0.012-0.1-0.014-0.201-0.024-0.301c-0.022-0.213,0.032-0.54,0.228-0.67h0.544c0.136,0.046,0.261,0.12,0.349,0.256
	c0.067,0.107,0.127,0.227,0.247,0.254c0.044,0.008,0.092,0.011,0.136-0.002c0.08-0.059,0.143-0.159,0.223-0.224
	c0.136-0.11,0.329-0.112,0.495-0.046c0.021,0.003,0.041,0.009,0.062,0.017c0.347,0.134,0.454,0.508,0.668,0.788
	c0.045,0.054,0.11,0.059,0.177,0.053c0.084-0.034,0.155-0.113,0.196-0.198c0.059-0.122,0.079-0.26,0.143-0.38
	c0.049-0.091,0.137-0.171,0.234-0.188c0.043-0.016,0.092-0.019,0.145-0.002c0.09,0.024,0.17,0.087,0.258,0.108
	c0.114-0.035,0.162-0.185,0.281-0.224c0.047-0.033,0.102-0.048,0.169-0.031c0.194,0.053,0.267,0.234,0.374,0.401
	c0.03,0.038,0.068,0.06,0.109,0.071c0.054-0.015,0.101-0.056,0.134-0.103c0.043-0.062,0.068-0.135,0.107-0.199
	c0.103-0.17,0.312-0.247,0.528-0.254c0.017-0.004,0.034-0.007,0.051-0.009c0.207-0.02,0.421,0.033,0.588,0.18
	c0.22,0.183,0.339,0.472,0.598,0.597c0.036,0.002,0.072-0.003,0.108-0.016c0.204-0.073,0.25-0.342,0.406-0.493
	c0.135-0.13,0.335-0.158,0.504-0.24c0.036-0.017,0.077-0.044,0.115-0.077v-0.041h0.115v-2.951h-6.417V8.397H88.81v14.969h0.364
	C89.201,23.376,89.227,23.386,89.254,23.392z"/>
<path d="M2.537,31.007h26.107c0.138,0.072,0.253,0.198,0.307,0.36c0.121,0.333-0.011,0.666-0.066,0.999
	c-0.039,0.258,0.074,0.585,0.302,0.653c0.137-0.056,0.225-0.235,0.243-0.408c0.021-0.192-0.022-0.385-0.04-0.578
	c-0.027-0.296,0.006-0.72,0.148-1.026h1.53c0.059,0.067,0.114,0.144,0.162,0.232c0.11,0.205,0.208,0.435,0.406,0.487
	c0.072,0.015,0.152,0.021,0.223-0.003c0.132-0.112,0.234-0.304,0.366-0.429c0.223-0.211,0.54-0.214,0.813-0.087
	c0.033,0.007,0.068,0.017,0.101,0.033c0.57,0.256,0.746,0.973,1.097,1.511c0.074,0.103,0.181,0.114,0.29,0.102
	c0.139-0.064,0.255-0.217,0.322-0.38c0.097-0.234,0.13-0.499,0.235-0.728c0.08-0.174,0.225-0.328,0.384-0.36
	c0.07-0.031,0.151-0.036,0.238-0.004c0.147,0.045,0.278,0.167,0.424,0.208c0.188-0.067,0.266-0.354,0.461-0.429
	c0.076-0.063,0.168-0.092,0.277-0.06c0.318,0.102,0.438,0.448,0.614,0.768c0.049,0.074,0.111,0.116,0.179,0.137
	c0.088-0.028,0.166-0.108,0.22-0.198c0.07-0.119,0.111-0.258,0.176-0.382c0.11-0.213,0.299-0.343,0.512-0.416h1.019
	c0.136,0.058,0.268,0.138,0.384,0.257c0.361,0.351,0.557,0.905,0.981,1.145c0.059,0.003,0.118-0.006,0.176-0.031
	c0.335-0.14,0.411-0.656,0.667-0.945c0.203-0.23,0.498-0.296,0.759-0.427h3.352v-1.535H2.537V31.007z"/>
<path d="M128.758,29.471H84.384v1.535h9.924c0.267,0.131,0.569,0.197,0.776,0.427c0.262,0.289,0.339,0.805,0.683,0.945
	c0.06,0.024,0.12,0.033,0.18,0.031c0.435-0.24,0.635-0.794,1.004-1.145c0.118-0.119,0.252-0.199,0.393-0.257h1.043
	c0.219,0.073,0.411,0.203,0.524,0.416c0.066,0.124,0.108,0.263,0.18,0.382c0.054,0.09,0.134,0.17,0.225,0.198
	c0.069-0.021,0.133-0.063,0.183-0.137c0.18-0.32,0.303-0.666,0.628-0.768c0.112-0.032,0.206-0.003,0.284,0.06
	c0.199,0.076,0.279,0.362,0.471,0.429c0.149-0.04,0.283-0.162,0.434-0.208c0.089-0.031,0.172-0.027,0.244,0.004
	c0.162,0.032,0.311,0.187,0.393,0.36c0.108,0.229,0.142,0.494,0.241,0.728c0.068,0.163,0.188,0.315,0.329,0.38
	c0.111,0.012,0.222,0,0.297-0.102c0.359-0.538,0.539-1.255,1.122-1.511c0.034-0.016,0.069-0.026,0.103-0.033
	c0.279-0.127,0.603-0.124,0.831,0.087c0.135,0.125,0.24,0.317,0.374,0.429c0.073,0.025,0.154,0.018,0.228,0.003
	c0.202-0.051,0.303-0.282,0.415-0.487c0.05-0.088,0.105-0.164,0.166-0.232h1.566c0.145,0.306,0.179,0.73,0.152,1.026
	c-0.018,0.193-0.061,0.386-0.041,0.578c0.018,0.173,0.109,0.353,0.249,0.408c0.233-0.068,0.349-0.395,0.309-0.653
	c-0.056-0.333-0.191-0.666-0.067-0.999c0.055-0.161,0.173-0.288,0.314-0.36h20.217L128.758,29.471L128.758,29.471z"/>
<rect x="84.384" y="27.975" width="44.374" height="0.262"/>
<rect x="2.363" y="27.972" width="43.369" height="0.262"/>
</svg>
